<svg xmlns="http://www.w3.org/2000/svg" viewBox="0 0 560 160" role="img" aria-labelledby="title description">
  <title id="title">Finora — Controle de Gastos</title>
  <description id="description">Logo da Finora para fundos escuros.</description>
  <defs>
    <linearGradient id="background" x1="20" y1="12" x2="108" y2="116" gradientUnits="userSpaceOnUse">
      <stop stop-color="#818CF8"/>
      <stop offset="1" stop-color="#38BDF8"/>
    </linearGradient>
  </defs>
  <rect x="10" y="16" width="128" height="128" rx="30" fill="url(#background)"/>
  <path d="M39.5 70.5H105V99.5C105 103.09 102.09 106 98.5 106H46C42.41 106 39.5 103.09 39.5 99.5V70.5Z" fill="#FFF"/>
  <path d="M40 70.5V61.5C40 57.91 42.91 55 46.5 55H96.5C100.09 55 103 57.91 103 61.5V70.5" fill="none" stroke="#FFF" stroke-width="7" stroke-linecap="round"/>
  <path d="M51 91.5L63.5 79L73 86.5L90 69.5" fill="none" stroke="#3730A3" stroke-width="7" stroke-linecap="round" stroke-linejoin="round"/>
  <path d="M80.5 69.5H90V79" fill="none" stroke="#3730A3" stroke-width="7" stroke-linecap="round" stroke-linejoin="round"/>
  <circle cx="51" cy="91.5" r="3.5" fill="#0EA5E9"/>
  <text x="168" y="80" fill="#F8FAFC" font-family="Segoe UI, Arial, sans-serif" font-size="59" font-weight="700" letter-spacing="-2">finora</text>
  <text x="172" y="112" fill="#CBD5E1" font-family="Segoe UI, Arial, sans-serif" font-size="19" font-weight="600" letter-spacing="3.6">CONTROLE DE GASTOS</text>
</svg>
